<svg t="1717336080865" class="icon" viewBox="0 0 1024 1024" version="1.1" xmlns="http://www.w3.org/2000/svg" p-id="5320" width="200" height="200"><path d="M501.20704 143.87712l380.6464 23.99744c0.01024-0.0256 0.02048-0.0256 0.0256-0.0256a30.67904 30.67904 0 0 1 28.672 32.6144l-41.5744 650.72128a30.72 30.72 0 0 1-33.77664 28.60032L418.6112 837.2736a5.12 5.12 0 0 1-4.31616-3.40992l-60.40064-173.71648a5.12 5.12 0 0 1-0.15872-2.80576l47.60576-210.9696a5.12 5.12 0 0 0-1.83296-5.15584l-156.6976-123.0848a5.12 5.12 0 0 1-1.56672-5.9904l36.90496-88.576-79.98976 5.00224a10.24 10.24 0 0 0-9.58464 10.76224l21.9904 415.85664 118.30784-8.83712a5.12 5.12 0 0 1 5.48352 4.70528l4.82816 61.4656v0.0256a5.12 5.12 0 0 1-4.72576 5.4784l-120.30976 8.84224 2.46784 42.33216a10.24 10.24 0 0 0 10.99264 9.61536l126.3104-9.5744h0.02048a5.12 5.12 0 0 1 5.47328 4.736l4.38784 61.46048a5.12 5.12 0 0 1-4.73088 5.46816l-178.15552 13.184a30.71488 30.71488 0 0 1-32.94208-29.00992l-33.5872-632.576a30.72 30.72 0 0 1 28.74368-32.28672l237.39392-14.976a5.12 5.12 0 0 1 5.04832 7.08096L328.28416 289.60768a5.12 5.12 0 0 0 1.5616 5.99552l149.5296 117.4528a5.12 5.12 0 0 1 1.82784 5.15584l-21.2992 94.12608 68.56704-90.27584a5.12 5.12 0 0 0-0.31744-6.57408L406.87104 284.416a5.12 5.12 0 0 1-0.47104-6.36928l90.2656-131.95264a5.12 5.12 0 0 1 4.54144-2.22208z m32.93696 74.0608l-36.59264 53.44256a5.12 5.12 0 0 0 0.48128 6.38976l123.8016 132.60288a5.12 5.12 0 0 1 0.33792 6.5792l-187.7504 248.33536a5.12 5.12 0 0 0-0.75264 4.77184l33.8688 97.24416a5.12 5.12 0 0 0 4.31104 3.40992l317.39904 32.37888a10.24 10.24 0 0 0 11.264-9.5744l2.944-49.24416-331.26912-32.27136a5.12 5.12 0 0 1-4.59776-5.61152l6.144-60.9792a5.12 5.12 0 0 1 5.59104-4.57728l329.25184 32.27136 26.99776-425.49248a10.27072 10.27072 0 0 0-9.56928-10.88l-291.86048-18.79552z m186.88 76.8c36.1984 0 65.536 29.3376 65.536 65.536 0 36.19328-29.3376 65.536-65.536 65.536s-65.536-29.34272-65.536-65.536c0-36.1984 29.3376-65.536 65.536-65.536z" fill="#666666" p-id="5321"></path></svg>